<svg xmlns="http://www.w3.org/2000/svg" width="36" height="36" id="bag"><g color="#000" transform="translate(-72 -404.362)"><rect width="36" height="36" x="72" y="404.362" fill="#fdb74d" fill-opacity=".871" opacity=".97" overflow="visible" rx="3" ry="3" style="isolation:auto;mix-blend-mode:normal"></rect><g transform="translate(-223.997 -1767.49)"><path style="isolation:auto;mix-blend-mode:normal" d="M300 2182.852h26c.554 0 1 .446 1 1v15c0 .554-.446 1-1 1h-26c-.554 0-1-.446-1-1v-15c0-.554.446-1 1-1z" opacity=".15" overflow="visible"></path><rect width="6" height="3.5" x="310.5" y="2180.852" fill="none" stroke="#000" stroke-dashoffset=".5" stroke-linecap="round" style="isolation:auto;mix-blend-mode:normal" stroke-linejoin="round" opacity=".15" overflow="visible" rx="1" ry="1"></rect><path style="isolation:auto;mix-blend-mode:normal" fill="#34485c" d="M301 2182.852h26c.554 0 1 .446 1 1v15c0 .554-.446 1-1 1h-26c-.554 0-1-.446-1-1v-15c0-.554.446-1 1-1z" overflow="visible"></path><rect width="6" height="3.5" x="311.5" y="2180.852" fill="none" stroke="#576d7e" stroke-dashoffset=".5" stroke-linecap="round" style="isolation:auto;mix-blend-mode:normal" stroke-linejoin="round" overflow="visible" rx="1" ry="1"></rect><path style="isolation:auto;mix-blend-mode:normal" d="M328 2183.852v4.34c0 1.824-1.561 3.294-3.5 3.294h-21c-1.939 0-3.5-1.47-3.5-3.294v-4.34" opacity=".15" overflow="visible"></path><path style="isolation:auto;mix-blend-mode:normal" fill="#2b4255" d="M301 2182.852c-.554 0-1 .446-1 1v3.34c0 1.825 1.561 3.293 3.5 3.293h21c1.939 0 3.5-1.468 3.5-3.293v-3.34c0-.554-.446-1-1-1z" overflow="visible"></path><rect width="3" height="2" x="2189.852" y="-314.5" fill-opacity=".976" opacity=".15" style="isolation:auto;mix-blend-mode:normal" overflow="visible" rx="0" ry="0" transform="rotate(90)"></rect><rect width="3" height="2" x="2189.852" y="-315.5" fill="#f8b74e" fill-opacity=".976" overflow="visible" rx="0" ry="0" transform="rotate(90)" style="isolation:auto;mix-blend-mode:normal"></rect><g opacity=".97"><path style="isolation:auto;mix-blend-mode:normal" d="M24 1066.728c.831 0 1.5.669 1.5 1.5v23.5l-2 4v-29h.5zm-1 0c-.831 0-1.5.669-1.5 1.5v23.5l2 4v-29H23z" opacity=".15" overflow="visible" transform="translate(281.5 1109.124)"></path><path style="isolation:auto;mix-blend-mode:normal" fill="#4bbfeb" d="M22.5 1069.728h4v22h-4z" overflow="visible" transform="translate(281.5 1109.124)"></path><path style="isolation:auto;mix-blend-mode:normal" fill="#e9eded" d="M22.5 1091.728h4l-2 4zm0-22v-1.5c0-.831.669-1.5 1.5-1.5h1c.831 0 1.5.669 1.5 1.5v1.5z" overflow="visible" transform="translate(281.5 1109.124)"></path><path style="isolation:auto;mix-blend-mode:normal" fill="#34485c" d="m24 1094.728.5 1 .5-1h-1zM22.5 1069.728h4v1h-4z" overflow="visible" transform="translate(281.5 1109.124)"></path></g></g></g></svg>