<svg xmlns="http://www.w3.org/2000/svg" viewBox="0 0 46 46" id="calender"><rect width="31.69" height="7.94" x="7.16" y="10" fill="#ffa624" rx="1.36" ry="1.36"></rect><path fill="#f6ffb8" d="M7.16 17.94h31.68V37a2 2 0 0 1-2 2H9.16a2 2 0 0 1-2-2V17.94ZM32 7h3v7h-3zM11 7h3v7h-3z"></path><path d="M21 27h3.99v3H21zM13 27h3.99v3H13zM29 27h3.99v3H29z"></path><path d="M40 29V12a3 3 0 0 0-1.92-2.82 2.81 2.81 0 0 0-1-.18H36V6h-5v3H17v2h14v4h5v-4h1a1 1 0 0 1 1 1v4a1 1 0 0 1-1 1H9a1 1 0 0 1-1-1v-4a1 1 0 0 1 1-1h1v4h5V6h-5v3H9a3 3 0 0 0-3 3v24.71A3.16 3.16 0 0 0 9 40h28a3.16 3.16 0 0 0 3-3.29V35h-2v1.71A1.19 1.19 0 0 1 37 38H9a1.19 1.19 0 0 1-1-1.29V18.82A2.77 2.77 0 0 0 9 19h28a2.77 2.77 0 0 0 1-.18V29Zm-6-16h-1V8h1ZM12 8h1v5h-1Z"></path><path d="M38 31h2v2h-2z"></path></svg>