<svg xmlns="http://www.w3.org/2000/svg" enable-background="new 0 0 66 66" viewBox="0 0 66 66" id="shopping"><rect width="29.7" height="34.8" x="27.5" y="22.3" fill="#E8664A" transform="rotate(143 42.34 39.68)"></rect><rect width="14.8" height="34.8" x="29" y="26.8" fill="#D95239" transform="rotate(143 36.425 44.181)"></rect><path fill="#283A48" d="M42.8,27.3l-1.7,1.3l-6.5-8.7c-1.9-2.5-5.5-3.1-8.1-1.2c-2.5,1.9-3.1,5.5-1.2,8.1l6.5,8.7l-1.7,1.3
				L23.7,28c-2.6-3.5-1.9-8.4,1.6-11s8.4-1.9,11,1.6L42.8,27.3z"></path><rect width="32.2" height="37.7" x="13.9" y="27.3" fill="#FAD22C"></rect><rect width="16.1" height="37.7" x="13.9" y="27.3" fill="#E0B624"></rect><path fill="#3B4C56" d="M37.9,35h-2.3V23.2c0-3.4-2.8-6.3-6.3-6.3S23,19.7,23,23.2V35h-2.3V23.2c0-4.7,3.8-8.5,8.5-8.5
				s8.5,3.8,8.5,8.5V35H37.9z"></path><g><rect width="29.7" height="34.8" x="6.7" y="23.9" fill="#6FAC43" transform="rotate(21.503 21.6 41.276)"></rect><rect width="14.8" height="34.8" x="21.1" y="26.6" fill="#639C42" transform="rotate(21.503 28.534 44.025)"></rect><path fill="#465C6A" d="M17.8,29.5l2,0.8l4-10.1c1.2-3,4.5-4.4,7.5-3.2c3,1.2,4.4,4.5,3.2,7.5l-4,10.1l2,0.8l4-10.1
				c1.6-4-0.4-8.6-4.4-10.2s-8.6,0.4-10.2,4.4L17.8,29.5z"></path></g><path fill="#D5B79F" d="M36.5,16.6l-1.1-4.9l-1.8-4H27l-1.3,4v2.7v5.1c0,0.6,0.5,1.1,1.1,1.1s1.1-0.5,1.1-1.1
		c0,0.6,0.5,1.1,1.1,1.1s1.1-0.5,1.1-1.1c0,0.6,0.5,1.1,1.1,1.1s1.1-0.5,1.1-1.1c0,0.6,0.5,1.1,1.1,1.1s1.1-0.5,1.1-1.1v-2.9
		l1.4,1.1L36.5,16.6z"></path><rect width="9.9" height="7.4" x="25.3" y="1" fill="#465C6A"></rect><rect width="5.2" height="7.4" x="25.3" y="1" fill="#3B4C56"></rect></svg>